<svg width="154" height="78" viewBox="0 0 154 78" fill="none" xmlns="http://www.w3.org/2000/svg">
<path d="M152.272 61.3657C150.702 54.1131 148.11 47.2547 144.655 40.9482C144.184 40.081 143.634 39.135 143.084 38.2679C139.079 31.5671 134.132 25.5759 128.399 20.373C127.692 19.6635 126.907 19.0328 126.121 18.4022C119.996 13.2781 113.007 9.09997 105.468 6.10435C104.525 5.71019 103.583 5.39487 102.64 5.07954C95.1015 2.39925 86.9342 0.901439 78.5313 0.743774C78.0602 0.743774 77.5105 0.743774 77.0393 0.743774C76.5681 0.743774 76.0184 0.743774 75.5472 0.743774C67.0658 0.901439 58.977 2.39925 51.438 5.07954C50.4957 5.39487 49.5533 5.78902 48.6109 6.10435C41.0719 9.09997 34.0826 13.2781 27.9572 18.4022C27.1719 19.0328 26.3865 19.7423 25.6798 20.373C19.947 25.5759 14.921 31.5671 10.9944 38.2679C10.4447 39.135 9.97348 40.081 9.42376 40.9482C5.96838 47.2547 3.37686 54.1131 1.80624 61.3657C1.57064 62.3905 1.41356 63.4153 1.17797 64.4401C0.392657 68.8547 0 73.3481 0 77.9204H154C154 73.3481 153.607 68.7759 152.822 64.4401C152.665 63.4153 152.508 62.3905 152.272 61.3657Z" fill="#F4F6D5"/>
</svg>
