<svg width="240" height="121" viewBox="0 0 240 121" fill="none" xmlns="http://www.w3.org/2000/svg">
<path d="M237.307 95.1942C234.86 83.8915 230.821 73.2031 225.436 63.3747C224.702 62.0233 223.845 60.549 222.988 59.1976C216.747 48.7549 209.036 39.4179 200.102 31.3094C199 30.2037 197.777 29.2208 196.553 28.238C187.007 20.2524 176.114 13.741 164.365 9.07254C162.896 8.45826 161.428 7.96686 159.959 7.47544C148.21 3.29835 135.482 0.964095 122.387 0.718384C121.652 0.718384 120.796 0.718384 120.061 0.718384C119.327 0.718384 118.47 0.718384 117.736 0.718384C104.518 0.964095 91.9123 3.29835 80.1632 7.47544C78.6945 7.96686 77.2259 8.58112 75.7573 9.07254C64.0082 13.741 53.1158 20.2524 43.5696 28.238C42.3457 29.2208 41.1219 30.3265 40.0204 31.3094C31.0862 39.4179 23.2534 48.7549 17.1341 59.1976C16.2774 60.549 15.5431 62.0233 14.6864 63.3747C9.30138 73.2031 5.26264 83.8915 2.81491 95.1942C2.44775 96.7914 2.20296 98.3885 1.8358 99.9856C0.611933 106.866 0 113.868 0 120.994H240C240 113.868 239.388 106.743 238.164 99.9856C237.919 98.3885 237.675 96.7914 237.307 95.1942Z" fill="white"/>
</svg>
